<svg width="32" height="32" viewBox="0 0 32 32" fill="none" xmlns="http://www.w3.org/2000/svg">
  <!-- Background circle with gradient -->
  <defs>
    <linearGradient id="bgGradient" x1="0%" y1="0%" x2="100%" y2="100%">
      <stop offset="0%" style="stop-color:#00ffff;stop-opacity:1" />
      <stop offset="100%" style="stop-color:#0080ff;stop-opacity:1" />
    </linearGradient>
    <linearGradient id="textGradient" x1="0%" y1="0%" x2="100%" y2="100%">
      <stop offset="0%" style="stop-color:#ffffff;stop-opacity:1" />
      <stop offset="100%" style="stop-color:#f0f0f0;stop-opacity:1" />
    </linearGradient>
  </defs>
  
  <!-- Background circle -->
  <circle cx="16" cy="16" r="16" fill="url(#bgGradient)"/>
  
  <!-- Border circle for tech effect -->
  <circle cx="16" cy="16" r="15" fill="none" stroke="rgba(255,255,255,0.2)" stroke-width="0.5"/>
  <circle cx="16" cy="16" r="13" fill="none" stroke="rgba(255,255,255,0.1)" stroke-width="0.5"/>
  
  <!-- Letter L -->
  <path d="M8 8 L8 24 L14 24 L14 22 L10 22 L10 8 Z" fill="url(#textGradient)" stroke="rgba(0,0,0,0.1)" stroke-width="0.5"/>
  
  <!-- Letter M -->
  <path d="M16 8 L16 24 L18 24 L18 12 L21 16 L23 12 L23 24 L25 24 L25 8 L23 8 L21 13 L19 8 Z" fill="url(#textGradient)" stroke="rgba(0,0,0,0.1)" stroke-width="0.5"/>
  
  <!-- Tech accent dots -->
  <circle cx="12" cy="10" r="0.5" fill="rgba(255,255,255,0.6)"/>
  <circle cx="20" cy="26" r="0.5" fill="rgba(255,255,255,0.6)"/>
  <circle cx="26" cy="12" r="0.5" fill="rgba(255,255,255,0.6)"/>
</svg> 